<svg width="20" height="20" viewBox="0 0 20 20" fill="none" xmlns="http://www.w3.org/2000/svg">
<path d="M15 6.66665H14.1667V4.99998C14.1667 2.69998 12.3 0.833313 10 0.833313C7.70001 0.833313 5.83334 2.69998 5.83334 4.99998V6.66665H5.00001C4.08334 6.66665 3.33334 7.41665 3.33334 8.33331V16.6666C3.33334 17.5833 4.08334 18.3333 5.00001 18.3333H15C15.9167 18.3333 16.6667 17.5833 16.6667 16.6666V8.33331C16.6667 7.41665 15.9167 6.66665 15 6.66665ZM10 14.1666C9.08334 14.1666 8.33334 13.4166 8.33334 12.5C8.33334 11.5833 9.08334 10.8333 10 10.8333C10.9167 10.8333 11.6667 11.5833 11.6667 12.5C11.6667 13.4166 10.9167 14.1666 10 14.1666ZM12.5833 6.66665H7.41668V4.99998C7.41668 3.57498 8.57501 2.41665 10 2.41665C11.425 2.41665 12.5833 3.57498 12.5833 4.99998V6.66665Z" fill="#A5B0C1"/>
</svg>
